<svg width="22" height="26" viewBox="0 0 22 26" fill="none" xmlns="http://www.w3.org/2000/svg">
<path d="M6.63929 0.869196L6.28571 1.57143H1.57143C0.702232 1.57143 0 2.27366 0 3.14286C0 4.01205 0.702232 4.71429 1.57143 4.71429H20.4286C21.2978 4.71429 22 4.01205 22 3.14286C22 2.27366 21.2978 1.57143 20.4286 1.57143H15.7143L15.3607 0.869196C15.0955 0.333929 14.5504 0 13.9563 0H8.04375C7.44955 0 6.90446 0.333929 6.63929 0.869196ZM20.4286 6.28571H1.57143L2.6125 22.933C2.69107 24.1754 3.72232 25.1429 4.96473 25.1429H17.0353C18.2777 25.1429 19.3089 24.1754 19.3875 22.933L20.4286 6.28571Z" fill="white"/>
</svg>
