<svg width="25" height="25" viewBox="0 0 25 25" fill="none" xmlns="http://www.w3.org/2000/svg">
<path d="M17.7289 0.916524L15.3631 3.28238L21.7176 9.63695L24.0835 7.27109C25.3055 6.04906 25.3055 4.06937 24.0835 2.84734L22.1576 0.916524C20.9355 -0.305508 18.9558 -0.305508 17.7338 0.916524H17.7289ZM14.2583 4.3871L2.8641 15.7862C2.35574 16.2946 1.98424 16.9251 1.77894 17.6144L0.0485425 23.4948C-0.0736607 23.9103 0.0387663 24.3551 0.34183 24.6582C0.644894 24.9612 1.08971 25.0737 1.50032 24.9563L7.38074 23.226C8.06996 23.0206 8.70053 22.6492 9.2089 22.1408L20.6129 10.7417L14.2583 4.3871Z" fill="white"/>
</svg>
